PathFileType	4	(X/Y/Z)	C:/Users/opensim2020/Desktop/walking_exp_matlab/subject02_walking06_straight_03.trc																																																																																																																									
DataRate	CameraRate	NumFrames	NumMarkers	Units	OrigDataRate	OrigDataStartFrame	OrigNumFrames																																																																																																																					
100	100	4	41	mm	100	2034	223																																																																																																																					
Frame#	Time	LFHD			RFHD			LBHD			RBHD			C7			T10			CLAV			STRN			RBAK			LSHO			LUPA			LELB			LFRM			LWRA			LWRB			LFIN			RSHO			RUPA			RELB			RFRM			RWRA			RWRB			RFIN			LASI			RASI			LPSI			RPSI			LTHI			LKNE			LTIB			LANK			LHEE			LTOE			RTHI			RKNE			RTIB			RANK			RHEE			RTOE			*39			*40		
		X1	Y1	Z1	X2	Y2	Z2	X3	Y3	Z3	X4	Y4	Z4	X5	Y5	Z5	X6	Y6	Z6	X7	Y7	Z7	X8	Y8	Z8	X9	Y9	Z9	X10	Y10	Z10	X11	Y11	Z11	X12	Y12	Z12	X13	Y13	Z13	X14	Y14	Z14	X15	Y15	Z15	X16	Y16	Z16	X17	Y17	Z17	X18	Y18	Z18	X19	Y19	Z19	X20	Y20	Z20	X21	Y21	Z21	X22	Y22	Z22	X23	Y23	Z23	X24	Y24	Z24	X25	Y25	Z25	X26	Y26	Z26	X27	Y27	Z27	X28	Y28	Z28	X29	Y29	Z29	X30	Y30	Z30	X31	Y31	Z31	X32	Y32	Z32	X33	Y33	Z33	X34	Y34	Z34	X35	Y35	Z35	X36	Y36	Z36	X37	Y37	Z37	X38	Y38	Z38	X39	Y39	Z39	X40	Y40	Z40	X41	Y41	Z41
																																																																																																																												
28	0.27	-643.05872	1712.10156	1404.1228	-648.92169	1692.42664	1547.10437	-769.53802	1632.45142	1389.49878	-788.28888	1610.8894	1530.32629	-820.94739	1491.16736	1456.47009	-875.28546	1217.70679	1466.72607	-682.83795	1423.58411	1447.92432	-632.1839	1250.58643	1454.85144	-882.24463	1317.71826	1517.35645	-746.87982	1467.29407	1276.65186	-743.24451	1267.47766	1193.11548	-724.38641	1125.1604	1178.50781	-674.02026	1001.1059	1176.41394	-583.49243	906.27899	1222.36609	-623.98828	889.52155	1186.802	-581.8288	839.17328	1187.07983	-750.41949	1452.90112	1645.05957	-806.56348	1271.63232	1727.09558	-810.92609	1128.16125	1756.28418	-795.77551	1011.79071	1789.33679	-756.14276	880.38324	1785.53943	-806.03821	883.34637	1811.23669	-774.80872	818.8786	1823.08386	-661.57343	941.63654	1328.59973	-630.10181	954.14252	1581.12903	-858.06104	996.14886	1431.39636	-850.63544	1005.08215	1546.505	-801.06006	644.20972	1295.43164	-878.5766	462.62396	1326.36926	-1022.89154	332.10019	1329.58569	-1134.72644	134.18501	1363.63635	-1177.23267	132.41678	1413.11243	-1017.44305	26.81598	1378.74329	-631.53461	666.48688	1672.06689	-562.71179	469.86716	1631.03516	-564.09277	281.5726	1645.41882	-559.35925	87.86713	1614.32092	-592.6333	33.51725	1560.64185	-403.80597	38.87408	1619.77039	-750.75153	1773.30042	1490.21118	2845.22388	1033.79395	-3360.32129
29	0.28	-633.47516	1713.51831	1406.5614	-638.9317	1693.6814	1549.57288	-759.84717	1633.81396	1392.10925	-778.30518	1612.01428	1532.89417	-810.54712	1492.3313	1458.89099	-864.26123	1218.45007	1469.45203	-672.3761	1425.15808	1450.26953	-620.29364	1252.63916	1457.84106	-871.27386	1318.62341	1520.36218	-736.64313	1468.50232	1279.0376	-734.10803	1268.37402	1195.86523	-717.12402	1126.245	1181.34839	-669.68866	1000.83643	1178.05579	-581.05292	903.66016	1221.70508	-622.51617	888.12817	1186.8457	-581.9892	836.81366	1186.13208	-739.61798	1454.51416	1647.43335	-794.58197	1272.78625	1729.9458	-798.224	1129.46497	1758.68567	-783.5061	1012.9892	1791.6001	-744.4079	881.51514	1788.10864	-794.26227	884.77997	1813.94592	-764.0816	820.00439	1825.42542	-649.06909	943.06738	1332.57178	-617.96741	955.53882	1583.85193	-845.64795	997.61646	1433.99023	-838.46356	1007.3512	1549.85156	-786.53833	644.4444	1297.41284	-860.93237	462.98062	1325.57935	-1008.83167	336.89124	1330.33594	-1125.92163	142.01839	1363.10217	-1166.81409	142.4272	1414.17297	-1016.82385	27.0395	1378.79187	-615.56708	668.41357	1674.03955	-550.88812	469.8537	1631.19397	-556.92908	281.45593	1645.74548	-557.3866	87.74998	1614.17859	-592.08496	33.6909	1560.57068	-403.0029	37.8158	1620.14026	-740.94775	1774.39099	1492.88892	2845.2771	1033.89978	-3360.33521
30	0.29	-623.76501	1715.05859	1408.98413	-629.07318	1695.02124	1551.91907	-750.14728	1635.21851	1394.58447	-768.31665	1613.15588	1535.33752	-800.52777	1493.26758	1461.146	-853.31531	1219.31543	1472.31201	-661.88037	1426.79993	1452.50061	-609.24847	1254.47473	1460.28516	-860.27289	1319.54749	1523.20776	-726.50922	1469.95471	1281.46118	-725.73669	1269.80786	1198.39819	-709.88104	1127.61328	1184.19116	-665.72845	1001.18414	1179.58716	-579.29071	901.40564	1221.07385	-621.48792	887.15485	1187.02185	-582.06659	834.91095	1184.91064	-729.16492	1456.50891	1649.53503	-782.77924	1274.42175	1732.14978	-785.30298	1131.14905	1760.95532	-770.78833	1014.927	1794.07642	-732.30676	883.13281	1790.74622	-781.95532	886.70862	1816.86841	-752.20813	821.685	1828.16321	-636.97821	944.54541	1336.66003	-605.46515	957.52637	1586.84607	-833.6842	998.89886	1436.64185	-826.4259	1008.96155	1553.06116	-771.90613	644.77429	1299.1665	-842.12457	462.7305	1325.05029	-993.00592	341.24634	1331.31921	-1115.61194	150.13614	1363.46436	-1154.19287	152.39006	1415.32324	-1015.51624	27.37167	1379.02869	-599.89844	669.66895	1675.71436	-540.9043	469.50476	1631.75562	-552.27747	281.03857	1645.76721	-556.41504	87.7664	1613.78125	-591.88831	33.82116	1560.37036	-402.27628	37.15146	1620.16077	-731.37024	1775.70532	1495.51489	2845.10278	1033.87061	-3360.33887
31	0.3	-614.2149	1716.74573	1411.26465	-619.28271	1696.43787	1554.1897	-740.32709	1636.67725	1396.8219	-758.36761	1614.34888	1537.54785	-790.64368	1494.02966	1463.28711	-842.38959	1220.30811	1475.30652	-651.48737	1428.48865	1454.68726	-598.17633	1256.28894	1462.75317	-849.31293	1320.33044	1525.69507	-716.58081	1471.54138	1283.92261	-717.57721	1271.55823	1200.74866	-702.51434	1129.23413	1187.13269	-661.96399	1002.1131	1181.20789	-577.5163	899.46918	1220.66089	-620.68402	886.61786	1186.72278	-582.97577	833.21893	1184.03149	-719.08911	1458.6825	1651.35132	-770.737	1276.40784	1734.95569	-772.40167	1133.1709	1763.21631	-757.83478	1017.02844	1796.37512	-719.73419	885.03461	1793.36145	-769.3869	888.86578	1819.61694	-739.98254	823.48804	1830.8822	-625.46765	946.01483	1340.66492	-593.31097	959.67188	1589.78076	-822.24176	1000.01318	1439.33264	-814.50122	1010.18225	1556.08142	-756.19592	644.02863	1300.87219	-822.39709	461.86737	1324.95691	-975.59918	345.10599	1332.55615	-1102.95264	157.76517	1363.48535	-1140.33191	162.78154	1416.20483	-1014.63385	27.15378	1379.29724	-585.20892	670.28015	1677.37048	-532.65125	469.07501	1632.77795	-549.84479	280.59827	1645.4718	-555.66608	87.80035	1613.25549	-591.85077	33.95106	1560.20081	-401.41779	36.74888	1619.15393	-721.69287	1777.0603	1498.05847	NaN	NaN	NaN
